# xmcd
#
# Track frame offsets:
# 150
# 4553
# 24047
# 48216
# 71534
# 77810
# 104938
# 131600
# 134866
# 156603
# 183669
# 184560
# 204259
# 224912
# 246461
# 248637
# 269036
# 289898
# 292551
# 310331
#
# Disc length: 4545 seconds
#
#
# Revision: 2
# Processed by: cddbd v1.5.1PL2 Copyright (c) Steve Scherf et al.
# Submitted via: FreeRIP 2.942 
#
DISCID=3711bf14
DTITLE=G Unit - The Game
DYEAR=2005
DGENRE=Rap
TTITLE0=Crunk Juice - Lil John and The East Side Boyz
TTITLE1=
TTITLE2=
TTITLE3=
TTITLE4=
TTITLE5=
TTITLE6=
TTITLE7=
TTITLE8=
TTITLE9=
TTITLE10=
TTITLE11=
TTITLE12=
TTITLE13=
TTITLE14=
TTITLE15=
TTITLE16=
TTITLE17=
TTITLE18=
TTITLE19=
EXTD=
EXTT0=
EXTT1=
EXTT2=
EXTT3=
EXTT4=
EXTT5=
EXTT6=
EXTT7=
EXTT8=
EXTT9=
EXTT10=
EXTT11=
EXTT12=
EXTT13=
EXTT14=
EXTT15=
EXTT16=
EXTT17=
EXTT18=
EXTT19=
PLAYORDER=
